<?xml version="1.0" encoding="UTF-8" standalone="no"?>
<!DOCTYPE svg PUBLIC "-//W3C//DTD SVG 20010904//EN"
"http://www.w3.org/TR/2001/REC-SVG-20010904/DTD/svg10.dtd">
<!-- Created with Inkscape (http://www.inkscape.org/) -->
<svg
   width="595.00000pt"
   height="842.00000pt"
   id="svg1"
   sodipodi:version="0.32"
   inkscape:version="0.40"
   sodipodi:docbase="D:\Big Directory\Save E\Label Carrote Hiphopderue mos124\Inkscape"
   sodipodi:docname="chienos.svg"
   inkscape:export-filename="D:\Big Directory\Save E\Label Carrote Hiphopderue mos124\Inkscape\chienos.png"
   inkscape:export-xdpi="72.000000"
   inkscape:export-ydpi="72.000000"
   xmlns="http://www.w3.org/2000/svg"
   xmlns:cc="http://web.resource.org/cc/"
   xmlns:inkscape="http://www.inkscape.org/namespaces/inkscape"
   xmlns:sodipodi="http://sodipodi.sourceforge.net/DTD/sodipodi-0.dtd"
   xmlns:rdf="http://www.w3.org/1999/02/22-rdf-syntax-ns#"
   xmlns:dc="http://purl.org/dc/elements/1.1/"
   xmlns:xlink="http://www.w3.org/1999/xlink">
  <defs
     id="defs3" />
  <sodipodi:namedview
     id="base"
     pagecolor="#ffffff"
     bordercolor="#666666"
     borderopacity="1.0"
     inkscape:pageopacity="0.0"
     inkscape:pageshadow="2"
     inkscape:zoom="0.30699633"
     inkscape:cx="310.51063"
     inkscape:cy="514.53889"
     inkscape:current-layer="layer1"
     showborder="true"
     inkscape:window-width="1280"
     inkscape:window-height="952"
     inkscape:window-x="-4"
     inkscape:window-y="-4" />
  <metadata
     id="metadata4">
    <rdf:RDF
       id="RDF5">
      <cc:Work
         rdf:about=""
         id="Work6">
        <dc:format
           id="format7">image/svg+xml</dc:format>
        <dc:type
           id="type9"
           rdf:resource="http://purl.org/dc/dcmitype/StillImage" />
      </cc:Work>
    </rdf:RDF>
  </metadata>
  <g
     inkscape:groupmode="layer"
     id="layer2"
     inkscape:label="chien">
    <path
       style="fill:none;fill-opacity:0.75000000;fill-rule:evenodd;stroke:#000000;stroke-width:12.500000;stroke-linecap:butt;stroke-linejoin:miter;stroke-miterlimit:4.0000000;stroke-opacity:1.0000000"
       d="M 286.20117,195.64078 C 143.64963,210.49387 141.56858,261.41876 144.69015,325.07488 C 147.81172,388.73099 185.27051,412.07157 232.09401,444.96056 C 278.91751,477.84954 410.49779,478.15060 443.79450,430.40852 C 477.09121,382.66644 397.53705,308.09991 374.64555,259.29689 C 351.75407,210.49387 333.02467,194.57985 286.20117,195.64078 z "
       id="path1061"
       sodipodi:nodetypes="cccccc" />
    <path
       sodipodi:type="arc"
       style="stroke-width:12.500000;stroke-miterlimit:4.0000000"
       id="path2307"
       sodipodi:cx="218.34544"
       sodipodi:cy="276.33026"
       sodipodi:rx="44.279846"
       sodipodi:ry="46.315701"
       d="M 262.62529 276.33026 A 44.279846 46.315701 0 1 1  174.06560,276.33026 A 44.279846 46.315701 0 1 1  262.62529 276.33026 z"
       transform="translate(14.37751,48.06974)" />
    <path
       sodipodi:type="arc"
       style="stroke-width:12.500000;stroke-miterlimit:4.0000000"
       id="path2308"
       sodipodi:cx="333.88022"
       sodipodi:cy="265.64203"
       sodipodi:rx="35.627464"
       sodipodi:ry="38.681244"
       d="M 369.50768 265.64203 A 35.627464 38.681244 0 1 1  298.25275,265.64203 A 35.627464 38.681244 0 1 1  369.50768 265.64203 z"
       transform="translate(14.37751,48.06974)" />
    <path
       style="fill:#454545;fill-opacity:1.0000000;fill-rule:evenodd;stroke:#000000;stroke-width:12.500000;stroke-linecap:butt;stroke-linejoin:miter;stroke-miterlimit:4.0000000;stroke-opacity:1.0000000"
       d="M 181.31762,217.00866 C 102.93720,114.19798 66.291813,164.07643 66.291813,164.07643 C 66.291813,164.07643 110.06270,195.63218 88.686219,213.95488 C 67.309741,232.27758 141.61845,263.83333 141.61845,263.83333 L 181.31762,217.00866 z "
       id="path2309"
       sodipodi:nodetypes="ccccc" />
    <path
       style="fill:#454545;fill-opacity:1.0000000;fill-rule:evenodd;stroke:#000000;stroke-width:12.500000;stroke-linecap:butt;stroke-linejoin:miter;stroke-miterlimit:4.0000000;stroke-opacity:1.0000000"
       d="M 230.17814,199.70389 C 188.44311,121.32348 234.24985,95.875286 234.24985,95.875286 C 234.24985,95.875286 261.73390,90.785646 275.98489,144.73581 C 290.23587,198.68596 284.12830,195.63218 284.12830,195.63218 L 230.17814,199.70389 z "
       id="path2931"
       sodipodi:nodetypes="ccccc" />
    <path
       sodipodi:type="arc"
       style="fill:#454545;fill-opacity:1.0000000;stroke-width:12.500000;stroke-miterlimit:4.0000000"
       id="path4211"
       sodipodi:cx="220.89027"
       sodipodi:cy="277.85718"
       sodipodi:rx="26.466116"
       sodipodi:ry="28.501970"
       d="M 247.35639 277.85718 A 26.466116 28.501970 0 1 1  194.42416,277.85718 A 26.466116 28.501970 0 1 1  247.35639 277.85718 z"
       transform="translate(14.37751,48.06974)" />
    <path
       sodipodi:type="arc"
       style="fill:#454545;fill-opacity:1.0000000;stroke-width:12.500000;stroke-miterlimit:4.0000000"
       id="path4214"
       sodipodi:cx="336.93402"
       sodipodi:cy="267.67789"
       sodipodi:rx="21.376478"
       sodipodi:ry="21.376478"
       d="M 358.31050 267.67789 A 21.376478 21.376478 0 1 1  315.55754,267.67789 A 21.376478 21.376478 0 1 1  358.31050 267.67789 z"
       transform="translate(13.35958,48.06974)" />
    <path
       style="fill:none;fill-opacity:0.75000000;fill-rule:evenodd;stroke:#000000;stroke-width:10.000000;stroke-linecap:round;stroke-linejoin:round;stroke-miterlimit:4.0000000;stroke-opacity:1.0000000"
       d="M 185.84714,412.45075 C 172.02839,408.35346 165.53974,408.37904 154.85151,410.41489 C 138.11578,415.92617 129.75700,425.12990 126.34954,431.79136 C 122.39191,441.02702 112.52020,459.19884 111.08063,497.95665 C 111.08063,515.94004 111.01887,516.73594 112.09855,553.43370 C 112.09855,564.40010 114.48085,595.68304 115.66130,611.45557 C 116.49150,622.51197 101.51908,623.16174 85.123478,628.76034 C 84.176826,629.26931 74.944197,631.57098 65.273886,645.04718 C 54.585647,663.20022 70.872487,671.17398 92.248964,683.72843 C 117.18819,697.81948 147.61874,648.60993 150.77980,648.60993 C 172.52662,648.60993 174.60803,658.78920 193.53275,658.78920 C 202.46923,658.78920 216.38411,641.48444 197.09549,624.17967 C 190.21007,620.61692 177.62284,624.00360 173.17420,618.07209 C 164.91395,607.05843 174.01397,558.01438 174.19212,533.58412 C 173.92634,530.02137 175.21006,494.13371 175.21006,509.15386 C 175.21006,513.70564 175.30092,516.23086 177.24591,525.94966 C 186.61110,538.43658 194.49829,562.03369 205.74788,580.40879 C 213.46292,593.21347 233.32263,627.07449 279.08982,643.15601 C 302.92814,650.84948 373.15030,675.88528 406.40309,735.30328 C 430.87576,775.45692 455.93004,771.29245 482.57922,764.09461 C 506.13643,755.81710 509.53991,741.02752 505.70219,721.69353 C 500.15886,698.15562 495.40820,694.18575 495.83861,670.92320 C 498.59425,622.78986 510.54802,579.72279 432.58756,584.00255 C 347.50774,589.00498 418.51371,696.98373 402.15310,696.98373"
       id="path4216"
       sodipodi:nodetypes="cccccccccccccccccccccccc" />
    <path
       style="fill:none;fill-opacity:0.75000000;fill-rule:evenodd;stroke:#000000;stroke-width:10.000000;stroke-linecap:round;stroke-linejoin:round;stroke-miterlimit:4.0000000;stroke-opacity:1.0000000"
       d="M 349.06483,467.46998 C 346.81431,467.46998 357.92805,465.87225 357.92805,482.68774 C 357.05919,489.14521 353.34737,494.44007 341.13224,497.44769 C 330.95297,499.17162 333.28378,498.46561 324.90715,499.54529 C 308.83354,499.54529 309.72440,486.25048 289.72690,486.25048 C 268.98868,486.25048 273.78421,503.17716 289.21794,514.75245 C 257.15235,527.60314 244.08147,529.16474 241.37534,543.25442 C 237.04671,553.17678 253.75048,583.11361 292.27173,580.91774 C 303.44891,578.35291 312.84992,579.89981 343.16810,544.27235 C 355.43136,544.27235 399.51532,532.73952 414.42302,520.35106 C 424.82063,504.35485 420.14607,487.62105 416.40772,477.59810 C 412.42318,469.40625 417.53090,476.07121 407.87883,461.82023"
       id="path4217"
       sodipodi:nodetypes="cccccccccccc" />
    <path
       style="fill:none;fill-opacity:0.75000000;fill-rule:evenodd;stroke:#000000;stroke-width:10.000000;stroke-linecap:round;stroke-linejoin:round;stroke-miterlimit:4.0000000;stroke-opacity:1.0000000"
       d="M 408.09905,524.74299 C 408.86454,533.87548 443.75182,551.01509 493.03349,549.93541 C 508.47832,549.93541 510.87034,545.05467 518.22591,537.69909 C 523.78772,532.13728 541.12088,501.41178 543.41834,497.39122 C 549.16758,487.33004 561.41280,472.19880 576.52837,464.28118 C 588.59800,461.40205 598.84166,456.82829 616.11646,476.51750 C 623.31429,489.17894 622.42387,504.03991 606.75928,529.78148 C 595.07743,547.94137 585.16578,573.49768 585.16578,580.16632 C 585.16578,592.30482 584.44599,611.43927 584.44599,620.47419 C 580.12729,647.30740 555.80774,643.50726 549.17660,643.50726 C 532.66486,641.70780 509.76578,628.75170 503.11046,626.23246"
       id="path1702"
       sodipodi:nodetypes="ccccccccccc" />
    <path
       style="fill:none;fill-opacity:0.75000000;fill-rule:evenodd;stroke:#000000;stroke-width:10.000000;stroke-linecap:round;stroke-linejoin:round;stroke-miterlimit:4.0000000;stroke-opacity:1.0000000"
       d="M 369.12524,583.97153 C 376.08996,588.39577 383.12744,595.41752 388.46586,604.83905"
       id="path1703"
       sodipodi:nodetypes="cc" />
  </g>
</svg>
